<svg width="100" height="90" viewBox="0 0 100 90" fill="none" xmlns="http://www.w3.org/2000/svg">
<path d="M66.2551 32.009L68.5316 31.588C72.9586 30.7687 77.0683 30.3533 80.7464 30.3527C83.6755 30.3527 85.9184 30.6203 87.5587 30.9353C83.0089 41.3202 76.4012 52.691 66.9059 62.5323C65.6687 62.4569 64.4466 62.4067 63.2581 62.4067C49.9312 62.4067 43.8863 67.0161 43.6357 67.2124L41.8021 68.6479L44.0786 68.2262C48.505 67.4069 52.6147 66.991 56.2928 66.991C58.5402 66.991 60.3879 67.1485 61.8679 67.3636C48.3797 79.3408 32.7599 86.1982 21.042 90H100V0H96.8746C96.3618 3.23378 94.4904 13.4385 89.6766 25.8112C89.0162 25.789 88.3569 25.7696 87.7117 25.7696C74.3848 25.7696 68.3399 30.3778 68.0893 30.5741L66.2551 32.009Z" fill="#F0DB4F"/>
<path d="M91.2872 0C82.9335 1.83043 66.6997 6.39314 50.8848 16.5269C51.3938 31.4447 46.4432 38.2239 46.1971 38.5502L44.7866 40.4176L45.2009 38.1001C46.7549 29.4062 46.5531 23.48 46.0256 19.8371C41.8637 22.8467 37.7916 26.2677 33.9661 30.161C33.8563 30.2728 33.7482 30.3858 33.64 30.499C33.5859 30.5556 33.5317 30.6123 33.4773 30.6688C34.5396 47.0136 29.1489 54.3952 28.8916 54.7358L27.4812 56.6032L27.8949 54.2863C29.4528 45.5684 29.2459 39.6343 28.715 35.9948C13.0067 54.9869 6.63221 77.6977 4.36966 88.316L2.71504 90H0V0H91.2872Z" fill="#323330"/>
<path d="M8.45371 90H5.46198L49.3504 45.9821L8.45371 90Z" fill="#F0DB4F"/>
</svg>
