<svg width="745" height="90" viewBox="0 0 745 90" fill="none" xmlns="http://www.w3.org/2000/svg">
<path d="M60 10.5L85 0H114.5V5L112 16.5L103.5 37.5L93.5 55.5L77.5 72.5L63 83L42 90H11V85.5L14.5 70.5L23 45.5L38 26.5L60 10.5Z" fill="white"/>
<path d="M79.2365 32.009L81.6155 31.588C86.2418 30.7687 90.5364 30.3533 94.3799 30.3527C97.4408 30.3527 99.7847 30.6203 101.499 30.9353C96.7443 41.3202 89.8393 52.691 79.9167 62.5323C78.6238 62.4569 77.3467 62.4067 76.1048 62.4067C62.1781 62.4067 55.8612 67.0161 55.5994 67.2124L53.6831 68.6479L56.0622 68.2262C60.6878 67.4069 64.9824 66.991 68.826 66.991C71.1745 66.991 73.1054 67.1485 74.6519 67.3636C60.5568 79.3408 44.2341 86.1982 31.9889 90H735C740.523 90 745 85.5229 745 80V10C745 4.47715 740.523 0 735 0H111.234C110.698 3.23378 108.743 13.4385 103.712 25.8112C103.022 25.789 102.333 25.7696 101.659 25.7696C87.7321 25.7696 81.4152 30.3778 81.1533 30.5741L79.2365 32.009Z" fill="#F0DB4F"/>
<path d="M105.395 0C96.6655 1.83043 79.7012 6.39314 63.1746 16.5269C63.7065 31.4447 58.5331 38.2239 58.276 38.5502L56.802 40.4176L57.235 38.1001C58.8589 29.4062 58.648 23.48 58.0967 19.8371C53.7476 22.8467 49.4922 26.2677 45.4946 30.161C45.3798 30.2728 45.2669 30.3858 45.1538 30.499C45.0972 30.5556 45.0406 30.6123 44.9837 30.6688C46.0939 47.0136 40.4606 54.3952 40.1917 54.7358L38.7178 56.6032L39.1502 54.2863C40.7782 45.5684 40.562 39.6343 40.0072 35.9948C23.592 54.9869 16.9307 77.6977 14.5663 88.316L12.8372 90H10C4.47715 90 0 85.5229 0 80V10C0 4.47715 4.47715 0 10 0H105.395Z" fill="#323330"/>
<path d="M18.8341 90H15.7078L61.5712 45.9821L18.8341 90Z" fill="#F0DB4F"/>
<path d="M134.229 29.5908H146.458V64.4856C146.458 67.4448 145.831 69.7594 144.575 71.4294C143.335 73.0994 141.592 74.2787 139.347 74.9672C137.102 75.6557 134.48 76 131.481 76C131.038 76 130.632 75.9927 130.263 75.978C129.879 75.9634 129.458 75.9414 129 75.9121V66.9467C129.295 66.976 129.554 66.998 129.775 67.0126C129.982 67.0273 130.196 67.0346 130.418 67.0346C131.88 67.0346 132.877 66.8075 133.409 66.3534C133.955 65.9139 134.229 65.2034 134.229 64.2219V29.5908ZM140.344 26.0749C138.689 26.0749 137.271 25.5329 136.09 24.4488C134.908 23.3648 134.317 22.061 134.317 20.5375C134.317 19.0139 134.908 17.7101 136.09 16.6261C137.271 15.542 138.689 15 140.344 15C142.013 15 143.431 15.542 144.597 16.6261C145.779 17.7101 146.37 19.0139 146.37 20.5375C146.37 22.061 145.779 23.3648 144.597 24.4488C143.431 25.5329 142.013 26.0749 140.344 26.0749Z" fill="#323330"/>
<path d="M162.172 63.8703C160.001 63.8703 158.081 63.5187 156.412 62.8156C154.758 62.0977 153.458 61.0137 152.512 59.5634C151.567 58.1131 151.095 56.2673 151.095 54.0259C151.095 52.1801 151.412 50.6053 152.047 49.3015C152.682 47.9831 153.569 46.9063 154.706 46.0713C155.843 45.2363 157.165 44.5991 158.672 44.1596C160.193 43.7201 161.833 43.4344 163.59 43.3026C165.496 43.1561 167.024 42.9803 168.176 42.7752C169.343 42.5555 170.185 42.2552 170.702 41.8743C171.219 41.4787 171.478 40.9587 171.478 40.3141V40.2262C171.478 39.3473 171.138 38.6734 170.458 38.2046C169.779 37.7358 168.907 37.5014 167.844 37.5014C166.677 37.5014 165.724 37.7578 164.986 38.2705C164.262 38.7686 163.827 39.5377 163.679 40.5778H152.424C152.572 38.5269 153.229 36.6371 154.396 34.9085C155.577 33.1652 157.298 31.7735 159.558 30.7334C161.818 29.6787 164.639 29.1513 168.021 29.1513C170.458 29.1513 172.644 29.437 174.579 30.0083C176.514 30.565 178.161 31.3487 179.52 32.3595C180.879 33.3557 181.913 34.5276 182.622 35.8754C183.345 37.2085 183.707 38.6587 183.707 40.2262V63.3429H172.275V58.5965H172.009C171.33 59.8564 170.503 60.8745 169.528 61.6509C168.568 62.4274 167.467 62.9914 166.227 63.3429C165.001 63.6945 163.649 63.8703 162.172 63.8703ZM166.16 56.2233C167.091 56.2233 167.962 56.0329 168.775 55.652C169.602 55.2711 170.274 54.7218 170.791 54.004C171.308 53.2861 171.566 52.4145 171.566 51.389V48.5764C171.241 48.7082 170.894 48.8327 170.525 48.9499C170.17 49.0671 169.786 49.177 169.373 49.2795C168.974 49.3821 168.546 49.4773 168.088 49.5652C167.645 49.6531 167.179 49.7337 166.692 49.8069C165.747 49.9534 164.971 50.1951 164.366 50.5321C163.775 50.8543 163.332 51.2572 163.036 51.7406C162.756 52.2094 162.615 52.7368 162.615 53.3228C162.615 54.2603 162.948 54.9781 163.612 55.4762C164.277 55.9743 165.126 56.2233 166.16 56.2233Z" fill="#323330"/>
<path d="M222.629 29.5908L211.197 63.3429H197.017L185.585 29.5908H198.435L203.93 51.9164H204.284L209.779 29.5908H222.629Z" fill="#323330"/>
<path d="M234.737 63.8703C232.566 63.8703 230.645 63.5187 228.976 62.8156C227.322 62.0977 226.022 61.0137 225.077 59.5634C224.132 58.1131 223.659 56.2673 223.659 54.0259C223.659 52.1801 223.977 50.6053 224.612 49.3015C225.247 47.9831 226.133 46.9063 227.27 46.0713C228.408 45.2363 229.73 44.5991 231.236 44.1596C232.758 43.7201 234.397 43.4344 236.155 43.3026C238.06 43.1561 239.589 42.9803 240.741 42.7752C241.908 42.5555 242.75 42.2552 243.267 41.8743C243.784 41.4787 244.042 40.9587 244.042 40.3141V40.2262C244.042 39.3473 243.702 38.6734 243.023 38.2046C242.344 37.7358 241.472 37.5014 240.409 37.5014C239.242 37.5014 238.289 37.7578 237.551 38.2705C236.827 38.7686 236.391 39.5377 236.243 40.5778H224.988C225.136 38.5269 225.793 36.6371 226.96 34.9085C228.142 33.1652 229.863 31.7735 232.123 30.7334C234.382 29.6787 237.203 29.1513 240.586 29.1513C243.023 29.1513 245.209 29.437 247.144 30.0083C249.079 30.565 250.726 31.3487 252.085 32.3595C253.443 33.3557 254.477 34.5276 255.186 35.8754C255.91 37.2085 256.272 38.6587 256.272 40.2262V63.3429H244.84V58.5965H244.574C243.894 59.8564 243.067 60.8745 242.092 61.6509C241.132 62.4274 240.032 62.9914 238.791 63.3429C237.565 63.6945 236.214 63.8703 234.737 63.8703ZM238.725 56.2233C239.655 56.2233 240.527 56.0329 241.339 55.652C242.166 55.2711 242.838 54.7218 243.355 54.004C243.872 53.2861 244.131 52.4145 244.131 51.389V48.5764C243.806 48.7082 243.459 48.8327 243.089 48.9499C242.735 49.0671 242.351 49.177 241.937 49.2795C241.539 49.3821 241.11 49.4773 240.652 49.5652C240.209 49.6531 239.744 49.7337 239.257 49.8069C238.311 49.9534 237.536 50.1951 236.93 50.5321C236.339 50.8543 235.896 51.2572 235.601 51.7406C235.32 52.2094 235.18 52.7368 235.18 53.3228C235.18 54.2603 235.512 54.9781 236.177 55.4762C236.842 55.9743 237.691 56.2233 238.725 56.2233Z" fill="#323330"/>
<path d="M293.222 40.5778H281.967C281.908 39.8893 281.664 39.296 281.236 38.7979C280.807 38.2998 280.253 37.9189 279.574 37.6553C278.909 37.3769 278.171 37.2378 277.358 37.2378C276.31 37.2378 275.409 37.4282 274.655 37.8091C273.902 38.19 273.533 38.732 273.548 39.4352C273.533 39.9332 273.747 40.3947 274.19 40.8195C274.648 41.2444 275.527 41.574 276.827 41.8084L283.739 43.0389C287.225 43.6688 289.817 44.7309 291.516 46.2251C293.229 47.7047 294.093 49.6897 294.108 52.1801C294.093 54.5826 293.369 56.6701 291.937 58.4427C290.519 60.2006 288.576 61.563 286.11 62.5299C283.658 63.4821 280.859 63.9582 277.713 63.9582C272.514 63.9582 268.445 62.9035 265.505 60.7939C262.581 58.6844 260.949 55.9011 260.609 52.4438H272.75C272.913 53.5132 273.444 54.3409 274.345 54.9269C275.261 55.4982 276.413 55.7839 277.802 55.7839C278.924 55.7839 279.847 55.5934 280.571 55.2125C281.309 54.8316 281.686 54.2896 281.701 53.5865C281.686 52.9419 281.361 52.4292 280.726 52.0483C280.106 51.6674 279.131 51.3597 277.802 51.1254L271.775 50.0706C268.304 49.47 265.705 48.3273 263.977 46.6426C262.248 44.958 261.392 42.7899 261.406 40.1383C261.392 37.7944 262.012 35.8094 263.268 34.1834C264.538 32.5426 266.347 31.2974 268.696 30.4478C271.059 29.5835 273.858 29.1513 277.093 29.1513C282.011 29.1513 285.888 30.1621 288.724 32.1837C291.575 34.2053 293.074 37.0034 293.222 40.5778Z" fill="#323330"/>
<path d="M315.189 63.9582C311.496 63.9582 308.335 63.2331 305.706 61.7828C303.077 60.3178 301.061 58.2816 299.658 55.674C298.255 53.0518 297.553 50.012 297.553 46.5548C297.553 43.0975 298.255 40.0651 299.658 37.4575C301.061 34.8353 303.077 32.799 305.706 31.3487C308.335 29.8838 311.496 29.1513 315.189 29.1513C318.527 29.1513 321.414 29.7519 323.852 30.9532C326.303 32.1398 328.201 33.8244 329.546 36.0072C330.89 38.1753 331.569 40.7243 331.584 43.6542H320.24C320.078 41.8816 319.561 40.5339 318.689 39.6109C317.833 38.6734 316.725 38.2046 315.366 38.2046C314.303 38.2046 313.372 38.5122 312.574 39.1275C311.777 39.7281 311.157 40.6437 310.713 41.8743C310.27 43.0902 310.049 44.621 310.049 46.4669C310.049 48.3127 310.27 49.8509 310.713 51.0814C311.157 52.2973 311.777 53.2129 312.574 53.8282C313.372 54.4288 314.303 54.7291 315.366 54.7291C316.267 54.7291 317.065 54.524 317.759 54.1138C318.453 53.689 319.014 53.0737 319.443 52.268C319.886 51.4476 320.152 50.4515 320.24 49.2795H331.584C331.54 52.2534 330.853 54.8463 329.523 57.0584C328.194 59.2558 326.311 60.9551 323.874 62.1563C321.451 63.3576 318.556 63.9582 315.189 63.9582Z" fill="#323330"/>
<path d="M336.63 63.3429V29.5908H348.505V36.0072H348.86C349.48 33.634 350.462 31.8981 351.806 30.7993C353.165 29.7006 354.753 29.1513 356.57 29.1513C357.101 29.1513 357.626 29.1952 358.143 29.2831C358.674 29.3564 359.184 29.4663 359.671 29.6128V39.9625C359.066 39.7574 358.32 39.6036 357.434 39.5011C356.548 39.3985 355.787 39.3473 355.152 39.3473C353.955 39.3473 352.877 39.6183 351.917 40.1603C350.972 40.6877 350.226 41.4348 349.679 42.4017C349.133 43.3539 348.86 44.4745 348.86 45.7637V63.3429H336.63Z" fill="#323330"/>
<path d="M363.682 63.3429V29.5908H375.911V63.3429H363.682ZM369.796 26.0749C368.142 26.0749 366.724 25.5329 365.543 24.4488C364.361 23.3648 363.77 22.061 363.77 20.5375C363.77 19.0139 364.361 17.7101 365.543 16.6261C366.724 15.542 368.142 15 369.796 15C371.465 15 372.883 15.542 374.05 16.6261C375.232 17.7101 375.823 19.0139 375.823 20.5375C375.823 22.061 375.232 23.3648 374.05 24.4488C372.883 25.5329 371.465 26.0749 369.796 26.0749Z" fill="#323330"/>
<path d="M382.143 76V29.5908H394.284V35.4798H394.55C394.993 34.3372 395.643 33.2897 396.499 32.3375C397.356 31.3707 398.419 30.6016 399.69 30.0303C400.96 29.4443 402.437 29.1513 404.121 29.1513C406.366 29.1513 408.5 29.7446 410.524 30.9312C412.562 32.1178 414.216 33.9856 415.487 36.5346C416.772 39.0836 417.414 42.3943 417.414 46.4669C417.414 50.3636 416.801 53.5938 415.575 56.1574C414.364 58.7211 412.739 60.6328 410.701 61.8927C408.677 63.1525 406.454 63.7824 404.032 63.7824C402.437 63.7824 401.012 63.5261 399.756 63.0133C398.515 62.486 397.452 61.7755 396.566 60.8818C395.694 59.9736 395.022 58.9481 394.55 57.8055H394.372V76H382.143ZM394.107 46.4669C394.107 48.1076 394.321 49.5286 394.749 50.7298C395.192 51.9164 395.812 52.8393 396.61 53.4986C397.422 54.1431 398.39 54.4654 399.512 54.4654C400.635 54.4654 401.588 54.1505 402.37 53.5205C403.168 52.876 403.774 51.9604 404.187 50.7738C404.616 49.5725 404.83 48.1369 404.83 46.4669C404.83 44.7968 404.616 43.3685 404.187 42.1819C403.774 40.9807 403.168 40.0651 402.37 39.4352C401.588 38.7906 400.635 38.4683 399.512 38.4683C398.39 38.4683 397.422 38.7906 396.61 39.4352C395.812 40.0651 395.192 40.9807 394.749 42.1819C394.321 43.3685 394.107 44.7968 394.107 46.4669Z" fill="#323330"/>
<path d="M442.832 29.5908V38.3804H420.411V29.5908H442.832ZM424.753 21.5043H436.983V52.4878C436.983 52.9565 437.064 53.3521 437.227 53.6744C437.389 53.982 437.64 54.2164 437.98 54.3775C438.32 54.524 438.755 54.5973 439.287 54.5973C439.656 54.5973 440.085 54.5533 440.572 54.4654C441.074 54.3775 441.443 54.3043 441.68 54.2457L443.452 62.7716C442.906 62.9328 442.123 63.1305 441.104 63.3649C440.099 63.5993 438.903 63.7531 437.515 63.8264C434.708 63.9729 432.352 63.6872 430.447 62.9694C428.542 62.2369 427.109 61.0869 426.149 59.5195C425.189 57.952 424.724 55.9889 424.753 53.6304V21.5043Z" fill="#323330"/>
<path d="M469.302 40.8415V49.9827H448.033V40.8415H469.302Z" fill="#323330"/>
<path d="M492.975 63.9582C489.283 63.9582 486.122 63.2331 483.493 61.7828C480.864 60.3178 478.847 58.2816 477.444 55.674C476.041 53.0518 475.339 50.012 475.339 46.5548C475.339 43.0975 476.041 40.0651 477.444 37.4575C478.847 34.8353 480.864 32.799 483.493 31.3487C486.122 29.8838 489.283 29.1513 492.975 29.1513C496.313 29.1513 499.201 29.7519 501.638 30.9532C504.09 32.1398 505.988 33.8244 507.332 36.0072C508.676 38.1753 509.355 40.7243 509.37 43.6542H498.027C497.864 41.8816 497.347 40.5339 496.476 39.6109C495.619 38.6734 494.511 38.2046 493.152 38.2046C492.089 38.2046 491.158 38.5122 490.361 39.1275C489.563 39.7281 488.943 40.6437 488.5 41.8743C488.057 43.0902 487.835 44.621 487.835 46.4669C487.835 48.3127 488.057 49.8509 488.5 51.0814C488.943 52.2973 489.563 53.2129 490.361 53.8282C491.158 54.4288 492.089 54.7291 493.152 54.7291C494.053 54.7291 494.851 54.524 495.545 54.1138C496.239 53.689 496.801 53.0737 497.229 52.268C497.672 51.4476 497.938 50.4515 498.027 49.2795H509.37C509.326 52.2534 508.639 54.8463 507.31 57.0584C505.98 59.2558 504.097 60.9551 501.66 62.1563C499.238 63.3576 496.343 63.9582 492.975 63.9582Z" fill="#323330"/>
<path d="M530.811 63.9582C527.119 63.9582 523.958 63.2331 521.329 61.7828C518.699 60.3178 516.683 58.2816 515.28 55.674C513.877 53.0518 513.175 50.012 513.175 46.5548C513.175 43.0975 513.877 40.0651 515.28 37.4575C516.683 34.8353 518.699 32.799 521.329 31.3487C523.958 29.8838 527.119 29.1513 530.811 29.1513C534.504 29.1513 537.665 29.8838 540.294 31.3487C542.923 32.799 544.939 34.8353 546.342 37.4575C547.745 40.0651 548.447 43.0975 548.447 46.5548C548.447 50.012 547.745 53.0518 546.342 55.674C544.939 58.2816 542.923 60.3178 540.294 61.7828C537.665 63.2331 534.504 63.9582 530.811 63.9582ZM530.9 54.9928C531.934 54.9928 532.827 54.6485 533.581 53.96C534.334 53.2715 534.917 52.29 535.331 51.0155C535.744 49.741 535.951 48.2248 535.951 46.4669C535.951 44.6943 535.744 43.1781 535.331 41.9182C534.917 40.6437 534.334 39.6622 533.581 38.9737C532.827 38.2852 531.934 37.9409 530.9 37.9409C529.807 37.9409 528.869 38.2852 528.086 38.9737C527.303 39.6622 526.705 40.6437 526.291 41.9182C525.878 43.1781 525.671 44.6943 525.671 46.4669C525.671 48.2248 525.878 49.741 526.291 51.0155C526.705 52.29 527.303 53.2715 528.086 53.96C528.869 54.6485 529.807 54.9928 530.9 54.9928Z" fill="#323330"/>
<path d="M565.64 44.3573V63.3429H553.41V29.5908H565.019V36.0072H565.374C566.112 33.8684 567.412 32.191 569.273 30.9751C571.149 29.7592 573.335 29.1513 575.831 29.1513C578.239 29.1513 580.329 29.7006 582.101 30.7993C583.888 31.8834 585.269 33.3776 586.244 35.2821C587.234 37.1865 587.721 39.3619 587.706 41.8084V63.3429H575.477V44.3573C575.491 42.6873 575.063 41.3762 574.191 40.424C573.335 39.4718 572.138 38.9957 570.602 38.9957C569.598 38.9957 568.719 39.2154 567.966 39.6549C567.227 40.0797 566.659 40.695 566.26 41.5007C565.861 42.2918 565.654 43.244 565.64 44.3573Z" fill="#323330"/>
<path d="M614.127 29.5908V38.3804H591.351V29.5908H614.127ZM595.693 63.3429V28.6239C595.693 25.8405 596.196 23.5333 597.2 21.7021C598.204 19.8709 599.622 18.5012 601.454 17.5929C603.285 16.6847 605.442 16.2305 607.923 16.2305C609.474 16.2305 610.981 16.3477 612.443 16.5821C613.92 16.8165 615.013 17.0216 615.722 17.1974L613.949 25.8991C613.506 25.7673 612.989 25.6647 612.399 25.5915C611.808 25.5036 611.291 25.4597 610.848 25.4597C609.696 25.4597 608.92 25.7014 608.521 26.1848C608.123 26.6682 607.923 27.3055 607.923 28.0965V63.3429H595.693Z" fill="#323330"/>
<path d="M618.846 63.3429V29.5908H631.076V63.3429H618.846ZM624.961 26.0749C623.306 26.0749 621.889 25.5329 620.707 24.4488C619.525 23.3648 618.934 22.061 618.934 20.5375C618.934 19.0139 619.525 17.7101 620.707 16.6261C621.889 15.542 623.306 15 624.961 15C626.63 15 628.048 15.542 629.215 16.6261C630.396 17.7101 630.987 19.0139 630.987 20.5375C630.987 22.061 630.396 23.3648 629.215 24.4488C628.048 25.5329 626.63 26.0749 624.961 26.0749Z" fill="#323330"/>
<path d="M637.307 63.3429V29.5908H649.182V36.0072H649.537C650.157 33.634 651.139 31.8981 652.483 30.7993C653.842 29.7006 655.43 29.1513 657.247 29.1513C657.779 29.1513 658.303 29.1952 658.82 29.2831C659.352 29.3564 659.861 29.4663 660.349 29.6128V39.9625C659.743 39.7574 658.997 39.6036 658.111 39.5011C657.225 39.3985 656.464 39.3473 655.829 39.3473C654.632 39.3473 653.554 39.6183 652.594 40.1603C651.649 40.6877 650.903 41.4348 650.356 42.4017C649.81 43.3539 649.537 44.4745 649.537 45.7637V63.3429H637.307Z" fill="#323330"/>
<path d="M664.359 63.3429V29.5908H675.968V36.0072H676.323C677.032 33.8977 678.243 32.2277 679.956 30.9971C681.669 29.7666 683.708 29.1513 686.071 29.1513C688.464 29.1513 690.524 29.7812 692.252 31.0411C693.98 32.2863 695.022 33.9416 695.376 36.0072H695.731C696.307 33.9416 697.533 32.2863 699.409 31.0411C701.284 29.7812 703.485 29.1513 706.011 29.1513C709.275 29.1513 711.919 30.1914 713.943 32.2716C715.981 34.3518 717 37.1206 717 40.5778V63.3429H704.77V43.6542C704.77 42.1746 704.393 41.0173 703.64 40.1823C702.887 39.3326 701.875 38.9078 700.605 38.9078C699.349 38.9078 698.352 39.3326 697.614 40.1823C696.89 41.0173 696.528 42.1746 696.528 43.6542V63.3429H684.83V43.6542C684.83 42.1746 684.454 41.0173 683.7 40.1823C682.947 39.3326 681.935 38.9078 680.665 38.9078C679.823 38.9078 679.099 39.0982 678.494 39.4791C677.888 39.86 677.416 40.4093 677.076 41.1272C676.751 41.8303 676.588 42.6727 676.588 43.6542V63.3429H664.359Z" fill="#323330"/>
</svg>
